<svg xmlns="http://www.w3.org/2000/svg" viewBox="0 0 1200 630" width="1200" height="630">
  <defs>
    <linearGradient id="bg" x1="0%" y1="0%" x2="100%" y2="100%">
      <stop offset="0%" style="stop-color:#05050a"/>
      <stop offset="100%" style="stop-color:#1a0a2e"/>
    </linearGradient>
    <linearGradient id="grad" x1="0%" y1="0%" x2="100%" y2="0%">
      <stop offset="0%" style="stop-color:#9333ea"/>
      <stop offset="100%" style="stop-color:#3b82f6"/>
    </linearGradient>
  </defs>
  <rect width="1200" height="630" fill="url(#bg)"/>
  <!-- Background glow -->
  <circle cx="600" cy="200" r="400" fill="rgba(147,51,234,0.08)"/>
  <circle cx="900" cy="400" r="300" fill="rgba(59,130,246,0.06)"/>
  <!-- Logo area -->
  <rect x="540" y="80" width="120" height="120" rx="24" fill="url(#grad)"/>
  <g transform="translate(552,92)" fill="none" stroke="white" stroke-width="6" stroke-linecap="round" stroke-linejoin="round">
    <path d="M48 8C48 8 56 8 56 16C56 22 50 28 48 28C44 28 38 22 38 16C38 8 48 8 48 8Z" transform="translate(-4,0)"/>
    <path d="M8 48C8 24 16 16 24 16" transform="translate(-4,0)"/>
    <path d="M48 48C48 48 48 64 48 88" transform="translate(-4,0)"/>
    <path d="M24 60C24 60 16 52 8 52" transform="translate(-4,0)"/>
    <path d="M60 60C60 60 72 52 80 52" transform="translate(-4,0)"/>
  </g>
  <!-- Title -->
  <text x="600" y="280" text-anchor="middle" font-family="Inter, Arial, sans-serif" font-size="72" font-weight="700" fill="white">JetSeek AI</text>
  <text x="600" y="360" text-anchor="middle" font-family="Inter, Arial, sans-serif" font-size="40" font-weight="500" fill="url(#grad)">捷策 · AI时代的随身智囊团</text>
  <text x="600" y="430" text-anchor="middle" font-family="Inter, Arial, sans-serif" font-size="28" fill="#9ca3af">让判断更快、更准、更可信</text>
  <!-- CTA -->
  <rect x="480" y="480" width="240" height="60" rx="30" fill="url(#grad)"/>
  <text x="600" y="520" text-anchor="middle" font-family="Inter, Arial, sans-serif" font-size="24" font-weight="600" fill="white">立即体验 →</text>
  <!-- Bottom -->
  <text x="600" y="600" text-anchor="middle" font-family="Inter, Arial, sans-serif" font-size="20" fill="#6b7280">www.jetseek.ai</text>
</svg>
