<svg xmlns="http://www.w3.org/2000/svg" viewBox="0 0 200 200" width="200" height="200">
  <rect width="200" height="200" fill="white" rx="12"/>
  <!-- QR code pattern simulation -->
  <rect x="20" y="20" width="50" height="50" fill="#1a1a2e" rx="4"/>
  <rect x="130" y="20" width="50" height="50" fill="#1a1a2e" rx="4"/>
  <rect x="20" y="130" width="50" height="50" fill="#1a1a2e" rx="4"/>
  <rect x="26" y="26" width="38" height="38" fill="white" rx="2"/>
  <rect x="30" y="30" width="30" height="30" fill="#1a1a2e" rx="2"/>
  <rect x="136" y="26" width="38" height="38" fill="white" rx="2"/>
  <rect x="140" y="30" width="30" height="30" fill="#1a1a2e" rx="2"/>
  <rect x="26" y="136" width="38" height="38" fill="white" rx="2"/>
  <rect x="30" y="140" width="30" height="30" fill="#1a1a2e" rx="2"/>
  <!-- QR data modules -->
  <rect x="90" y="20" width="10" height="10" fill="#1a1a2e"/>
  <rect x="110" y="30" width="10" height="10" fill="#1a1a2e"/>
  <rect x="80" y="40" width="10" height="10" fill="#1a1a2e"/>
  <rect x="100" y="50" width="10" height="10" fill="#1a1a2e"/>
  <rect x="130" y="40" width="10" height="10" fill="#1a1a2e"/>
  <rect x="20" y="80" width="10" height="10" fill="#1a1a2e"/>
  <rect x="50" y="80" width="10" height="10" fill="#1a1a2e"/>
  <rect x="70" y="90" width="10" height="10" fill="#1a1a2e"/>
  <rect x="90" y="80" width="10" height="10" fill="#1a1a2e"/>
  <rect x="110" y="90" width="10" height="10" fill="#1a1a2e"/>
  <rect x="140" y="80" width="10" height="10" fill="#1a1a2e"/>
  <rect x="170" y="90" width="10" height="10" fill="#1a1a2e"/>
  <rect x="80" y="110" width="10" height="10" fill="#1a1a2e"/>
  <rect x="100" y="100" width="10" height="10" fill="#1a1a2e"/>
  <rect x="130" y="110" width="10" height="10" fill="#1a1a2e"/>
  <rect x="160" y="100" width="10" height="10" fill="#1a1a2e"/>
  <rect x="80" y="130" width="10" height="10" fill="#1a1a2e"/>
  <rect x="110" y="140" width="10" height="10" fill="#1a1a2e"/>
  <rect x="140" y="130" width="10" height="10" fill="#1a1a2e"/>
  <rect x="170" y="140" width="10" height="10" fill="#1a1a2e"/>
  <rect x="90" y="160" width="10" height="10" fill="#1a1a2e"/>
  <rect x="120" y="150" width="10" height="10" fill="#1a1a2e"/>
  <rect x="150" y="160" width="10" height="10" fill="#1a1a2e"/>
  <rect x="80" y="170" width="10" height="10" fill="#1a1a2e"/>
  <rect x="110" y="180" width="10" height="10" fill="#1a1a2e"/>
  <rect x="140" y="170" width="10" height="10" fill="#1a1a2e"/>
  <rect x="170" y="180" width="10" height="10" fill="#1a1a2e"/>
</svg>
